<svg width="45" height="45" viewBox="0 0 45 45" fill="none" xmlns="http://www.w3.org/2000/svg">
<g filter="url(#filter0_d_27_2)">
<circle r="18.5" transform="matrix(-1 0 0 1 22.5 22.5)" fill="white"/>
<g clip-path="url(#clip0_27_2)">
<path d="M25.5293 29C26.1099 28.6204 26.1551 28.2347 25.6647 27.7556C23.7486 25.9076 21.8389 24.0596 19.9164 22.2178C19.7228 22.0311 19.7293 21.9378 19.9228 21.7573C21.8389 19.9156 23.7486 18.0676 25.6647 16.2196C26.1293 15.7716 26.1034 15.3796 25.5938 15C25.4002 15 25.2067 15 25.0131 15C24.8905 15.0996 24.7615 15.1929 24.6454 15.3049C22.5551 17.3209 20.4647 19.3307 18.3809 21.3467C17.8712 21.8382 17.8712 22.1431 18.3809 22.6347C20.4454 24.6258 22.5099 26.6169 24.5809 28.6142C24.7357 28.7636 24.8841 28.9067 25.0776 29C25.226 29 25.3809 29 25.5293 29Z" fill="#017950"/>
</g>
</g>
<defs>
<filter id="filter0_d_27_2" x="0" y="0" width="45" height="45" filterUnits="userSpaceOnUse" color-interpolation-filters="sRGB">
<feFlood flood-opacity="0" result="BackgroundImageFix"/>
<feColorMatrix in="SourceAlpha" type="matrix" values="0 0 0 0 0 0 0 0 0 0 0 0 0 0 0 0 0 0 127 0" result="hardAlpha"/>
<feOffset/>
<feGaussianBlur stdDeviation="2"/>
<feComposite in2="hardAlpha" operator="out"/>
<feColorMatrix type="matrix" values="0 0 0 0 0 0 0 0 0 0 0 0 0 0 0 0 0 0 0.1 0"/>
<feBlend mode="normal" in2="BackgroundImageFix" result="effect1_dropShadow_27_2"/>
<feBlend mode="normal" in="SourceGraphic" in2="effect1_dropShadow_27_2" result="shape"/>
</filter>
<clipPath id="clip0_27_2">
<rect width="8" height="14" fill="white" transform="matrix(-1 0 0 1 26 15)"/>
</clipPath>
</defs>
</svg>
