<svg width="31" height="27" viewBox="0 0 31 27" fill="none" xmlns="http://www.w3.org/2000/svg">
<g clip-path="url(#clip0_501_3952)">
<path d="M12.5062 21.9421C12.7467 22.2295 12.951 22.4879 13.0894 22.7882C13.6034 23.9088 13.3925 25.2037 12.526 26.0853C11.643 26.9798 10.2757 27.2511 9.12585 26.7408C8.01224 26.2468 7.40272 25.3749 7.30717 24.1929C7.25446 23.5406 7.42249 22.9109 7.82115 22.3619C8.05837 22.0326 8.32524 21.7387 8.68766 21.5353C8.79309 21.4771 8.80627 21.4029 8.7832 21.2931C8.52951 20.1079 8.27911 18.926 8.03201 17.7409C7.63664 15.8485 7.24128 13.9594 6.84591 12.067C6.56915 10.7462 6.2924 9.42223 6.01564 8.10146C5.729 6.72256 5.44236 5.34043 5.15572 3.96152C5.12607 3.8259 5.09642 3.68704 5.07665 3.55141C5.06017 3.43838 4.99757 3.40286 4.88555 3.40286C3.74229 3.40609 2.60231 3.39963 1.45905 3.40932C0.902239 3.41578 0.464042 3.22848 0.164222 2.76023C0.0587912 2.59231 -0.000513741 2.40501 -0.000513741 2.19834C0.00278098 1.86895 -0.00380846 1.5428 -0.000513741 1.21341C0.0060757 0.580471 0.589241 0.00243066 1.23501 -0.00079862C3.11299 -0.0040279 4.99098 -0.00079862 6.86897 0.00243066C7.50156 0.00243066 7.98918 0.438383 8.12755 1.1133C8.26923 1.80437 8.4142 2.4922 8.54928 3.1865C8.57564 3.32859 8.63824 3.36734 8.77991 3.36734C11.6035 3.36411 14.4238 3.36088 17.2473 3.36088C19.7184 3.36088 22.1894 3.36411 24.6604 3.36411C26.3177 3.36411 27.9782 3.36411 29.6355 3.36411C30.5613 3.36411 31.1642 4.08101 30.9665 4.96906C30.7096 6.1316 30.4262 7.28445 30.156 8.44376C29.8925 9.58047 29.6355 10.7204 29.3719 11.8603C29.1215 12.9454 28.8612 14.0304 28.6108 15.1154C28.5383 15.4287 28.4988 15.7548 28.3736 16.0552C28.1561 16.5751 27.7575 16.856 27.171 16.8851C26.8086 16.9012 26.4495 16.9077 26.0871 16.8851C25.7741 16.8657 25.4611 16.9045 25.1481 16.898C24.4858 16.8883 23.8203 16.898 23.1581 16.898C22.7199 16.898 22.2817 16.898 21.8435 16.898C21.1845 16.898 20.5289 16.898 19.8699 16.898C19.4251 16.898 18.9804 16.9012 18.5389 16.898C17.8865 16.8948 17.2342 16.898 16.5818 16.898C16.137 16.898 15.6922 16.898 15.2507 16.898C14.5918 16.8948 13.9328 16.9109 13.2772 16.8948C12.727 16.8819 12.1801 16.9045 11.6331 16.9045C11.4355 16.9045 11.4289 16.9109 11.4684 17.0918C11.5541 17.5083 11.643 17.9249 11.7221 18.3415C11.7485 18.4707 11.8078 18.5159 11.9428 18.5223C12.3646 18.5353 12.7863 18.5449 13.208 18.5223C13.4979 18.5062 13.7879 18.5417 14.0811 18.5385C14.7565 18.5256 15.4319 18.5385 16.1041 18.5353C16.5521 18.532 17.0035 18.5385 17.4516 18.5353C18.0776 18.532 18.7036 18.5353 19.3263 18.5353C19.804 18.5353 20.2785 18.5353 20.7562 18.5353C21.369 18.5353 21.9851 18.5417 22.598 18.532C23.1515 18.5223 23.7083 18.5579 24.2585 18.532C24.924 18.4997 25.5863 18.5514 26.2485 18.532C26.97 18.5094 27.6224 19.3071 27.4741 20.0078C27.3918 20.3921 27.3127 20.7764 27.2106 21.1574C27.1677 21.3157 27.2172 21.3867 27.3522 21.4642C28.0375 21.855 28.5087 22.4265 28.7294 23.1693C29.026 24.1703 28.8513 25.0971 28.1693 25.9142C27.3456 26.9023 26.0343 27.2414 24.8219 26.8345C23.6786 26.4502 22.8385 25.3652 22.7956 24.1929C22.7693 23.4212 22.9966 22.7172 23.5106 22.1133C23.5435 22.0713 23.6127 22.0293 23.593 21.9809C23.5666 21.9163 23.4842 21.9486 23.4315 21.9486C20.7397 21.9454 18.0512 21.9486 15.3595 21.9454C14.4864 21.9454 13.6133 21.9421 12.7402 21.9421C12.671 21.9421 12.6117 21.9421 12.5062 21.9421Z" fill="#337753"/>
</g>
<defs>
<clipPath id="clip0_501_3952">
<rect width="31" height="27" fill="white"/>
</clipPath>
</defs>
</svg>
