<svg width="40" height="39" viewBox="0 0 40 39" fill="none" xmlns="http://www.w3.org/2000/svg">
<ellipse cx="20" cy="21" rx="13" ry="12" fill="#337753"/>
<g filter="url(#filter0_d_501_4777)">
<path d="M19.9923 35C28.7617 35 36 27.9845 36 19.5C36 11.0155 28.7463 4 19.9768 4C11.2228 4 4 11.0155 4 19.5C4 27.9845 11.2383 35 19.9923 35ZM19.9768 21.9434C16.9454 21.9284 14.5945 19.47 14.5945 16.2171C14.5636 13.1591 16.9609 10.6107 19.9768 10.6107C22.9928 10.6107 25.3591 13.1591 25.3591 16.2171C25.3591 19.47 23.0082 21.9734 19.9768 21.9434ZM19.9768 32.4367C16.5123 32.4367 12.8313 31.0426 10.4959 28.6141C12.2745 26.0358 15.8009 24.5368 19.9768 24.5368C24.1063 24.5368 27.6636 26.0058 29.4577 28.6141C27.1223 31.0426 23.4413 32.4367 19.9768 32.4367Z" fill="white"/>
</g>
<defs>
<filter id="filter0_d_501_4777" x="0" y="0" width="40" height="39" filterUnits="userSpaceOnUse" color-interpolation-filters="sRGB">
<feFlood flood-opacity="0" result="BackgroundImageFix"/>
<feColorMatrix in="SourceAlpha" type="matrix" values="0 0 0 0 0 0 0 0 0 0 0 0 0 0 0 0 0 0 127 0" result="hardAlpha"/>
<feOffset/>
<feGaussianBlur stdDeviation="2"/>
<feComposite in2="hardAlpha" operator="out"/>
<feColorMatrix type="matrix" values="0 0 0 0 0 0 0 0 0 0 0 0 0 0 0 0 0 0 0.25 0"/>
<feBlend mode="normal" in2="BackgroundImageFix" result="effect1_dropShadow_501_4777"/>
<feBlend mode="normal" in="SourceGraphic" in2="effect1_dropShadow_501_4777" result="shape"/>
</filter>
</defs>
</svg>
