<svg width="13" height="13" viewBox="0 0 13 13" fill="none" xmlns="http://www.w3.org/2000/svg">
<path fill-rule="evenodd" clip-rule="evenodd" d="M1.78333 5.14103C1.78494 7.01024 3.24129 8.49245 5.07615 8.49233C6.90054 8.49221 8.37972 6.9969 8.38844 5.14378C8.39705 3.3013 6.92235 1.79003 5.09431 1.76809C3.27397 1.7462 1.78171 3.26638 1.78333 5.14103ZM4.50164 0H5.63123C5.84412 0.042694 6.05927 0.0764785 6.26958 0.129338C9.64605 0.977118 11.2071 4.90233 9.34569 7.88206C9.20093 8.11383 9.2176 8.24281 9.40903 8.43075C10.123 9.13179 10.817 9.85304 11.5218 10.5636C11.7402 10.7839 11.9307 11.0212 12.0522 11.3093V12.0831C11.6848 13.125 10.4678 13.3015 9.73131 12.4967C8.9691 11.6638 8.15235 10.8812 7.36912 10.0673C7.21013 9.90214 7.07749 9.85299 6.85427 9.9483C6.08837 10.2756 5.27066 10.3559 4.46334 10.2375C2.35843 9.92851 0.913729 8.73876 0.275742 6.71563C-0.37049 4.66626 0.128942 2.83724 1.67115 1.32746C2.45421 0.560822 3.42869 0.165992 4.50164 0Z" fill="#999999"/>
</svg>
